<svg id="Capa_1" enable-background="new 0 0 512 512" height="512" viewBox="0 0 512 512" width="512" xmlns="http://www.w3.org/2000/svg"><g><g><g><path d="m271 311.854c-4.142 0-7.5-3.357-7.5-7.5v-12c0-4.143 3.358-7.5 7.5-7.5s7.5 3.357 7.5 7.5v12c0 4.142-3.358 7.5-7.5 7.5z"/></g><g><path d="m241 311.854c-4.142 0-7.5-3.357-7.5-7.5v-12c0-4.143 3.358-7.5 7.5-7.5s7.5 3.357 7.5 7.5v12c0 4.142-3.358 7.5-7.5 7.5z"/></g></g><g><path d="m184.844 323.5h16.574c.717 7.765 2.53 15.13 5.251 21.862-10.389 5.16-17.466 15.951-17.466 28.003 0 4.143 3.358 7.5 7.5 7.5s7.5-3.357 7.5-7.5c0-6.435 3.879-12.179 9.517-14.765 10.085 14.771 25.293 24.195 42.279 24.195s32.194-9.425 42.28-24.196c5.638 2.586 9.517 8.331 9.517 14.766 0 4.143 3.358 7.5 7.5 7.5s7.5-3.357 7.5-7.5c0-12.051-7.077-22.843-17.467-28.003 2.722-6.732 4.534-14.098 5.251-21.863h16.574c4.142 0 7.5-3.357 7.5-7.5s-3.358-7.5-7.5-7.5h-16.574c-.716-7.748-2.521-15.1-5.233-21.82 10.484-5.104 17.448-15.791 17.448-28.045 0-4.143-3.358-7.5-7.5-7.5s-7.5 3.357-7.5 7.5c0 6.542-3.814 12.224-9.505 14.782-10.085-14.781-25.298-24.213-42.291-24.213-16.986 0-32.194 9.425-42.279 24.196-5.638-2.585-9.517-8.33-9.517-14.765 0-4.143-3.358-7.5-7.5-7.5s-7.5 3.357-7.5 7.5c0 12.05 7.077 22.843 17.466 28.002-2.722 6.732-4.534 14.098-5.252 21.863h-16.574c-4.142 0-7.5 3.357-7.5 7.5s3.359 7.501 7.501 7.501zm71.156-59.296c22.021 0 39.937 23.235 39.937 51.796s-17.916 51.796-39.937 51.796-39.937-23.235-39.937-51.796 17.916-51.796 39.937-51.796z"/><path d="m430.25 40c-44.514 0-80.806 35.768-81.707 80.07-.843-.045-1.69-.07-2.543-.07h-22.5v-12.5c0-15.163-12.336-27.5-27.5-27.5h-12.5v-25h32.5c15.164 0 27.5-12.337 27.5-27.5s-12.336-27.5-27.5-27.5h-120c-15.164 0-27.5 12.337-27.5 27.5s12.336 27.5 27.5 27.5h32.5v25h-12.5c-15.164 0-27.5 12.337-27.5 27.5v12.5h-22.5c-26.191 0-47.5 21.309-47.5 47.5v259.5h-11.75c-20.264 0-36.75-16.486-36.75-36.75v-26.869c13.996-1.268 25-13.061 25-27.381v-100c0-12.563-8.472-23.178-20-26.452v-130.835c0-15.225 5.929-29.537 16.694-40.303 4.25-4.25 6.59-9.9 6.59-15.91 0-6.011-2.341-11.66-6.59-15.909-4.249-4.25-9.9-6.591-15.91-6.591s-11.66 2.341-15.91 6.59c-25.713 25.713-39.874 59.901-39.874 96.265v106.693c-11.528 3.274-20 13.889-20 26.452v100c0 14.32 11.004 26.113 25 27.381v26.869c0 45.077 36.673 81.75 81.75 81.75h12.348c3.607 22.64 23.263 40 46.902 40h180c23.639 0 43.295-17.36 46.902-40h37.348c45.077 0 81.75-36.673 81.75-81.75v-268.5c0-45.077-36.673-81.75-81.75-81.75zm-246.75-12.5c0-6.893 5.607-12.5 12.5-12.5h120c6.893 0 12.5 5.607 12.5 12.5s-5.607 12.5-12.5 12.5h-120c-6.893 0-12.5-5.607-12.5-12.5zm60 27.5h25v25h-25zm-40 52.5c0-6.893 5.607-12.5 12.5-12.5h80c6.893 0 12.5 5.607 12.5 12.5v12.5h-105zm-37.5 27.5h180c17.92 0 32.5 14.579 32.5 32.5v11h-190.362c-4.142 0-7.5 3.357-7.5 7.5s3.358 7.5 7.5 7.5h190.362v245h-245v-245h24.638c4.142 0 7.5-3.357 7.5-7.5s-3.358-7.5-7.5-7.5h-24.638v-11c0-17.921 14.58-32.5 32.5-32.5zm-95.519-117.804c1.417-1.416 3.3-2.196 5.304-2.196 2.003 0 3.886.78 5.303 2.197 1.417 1.416 2.196 3.299 2.196 5.303 0 2.003-.78 3.887-2.197 5.304-13.598 13.598-21.087 31.678-21.087 50.909v129.787h-25v-105.645c0-32.358 12.601-62.778 35.481-85.659zm-55.481 318.804v-100c0-6.893 5.607-12.5 12.5-12.5h40c6.893 0 12.5 5.607 12.5 12.5v100c0 6.893-5.607 12.5-12.5 12.5h-40c-6.893 0-12.5-5.607-12.5-12.5zm25 54.25v-26.75h15v26.75c0 28.535 23.215 51.75 51.75 51.75h11.75v15h-11.75c-36.806 0-66.75-29.944-66.75-66.75zm306 106.75h-180c-17.92 0-32.5-14.579-32.5-32.5v-11h245v11c0 17.921-14.58 32.5-32.5 32.5zm151-106.75c0 36.806-29.944 66.75-66.75 66.75h-36.75v-15h36.75c28.535 0 51.75-23.215 51.75-51.75v-59.25c0-4.143-3.358-7.5-7.5-7.5s-7.5 3.357-7.5 7.5v59.25c0 20.264-16.486 36.75-36.75 36.75h-36.75v-305.25c0-20.264 16.486-36.75 36.75-36.75s36.75 16.486 36.75 36.75v179.25c0 4.143 3.358 7.5 7.5 7.5s7.5-3.357 7.5-7.5v-179.25c0-28.535-23.215-51.75-51.75-51.75s-51.75 23.215-51.75 51.75v11.156c-4.322-4.063-9.399-7.323-15-9.551v-1.605c0-36.806 29.944-66.75 66.75-66.75s66.75 29.944 66.75 66.75z"/></g></g></svg>