<svg height="512" viewBox="0 0 128 128" width="512" xmlns="http://www.w3.org/2000/svg"><g><path d="m106.938 113.626h-.169l1.894-9.721a207.752 207.752 0 0 0 0-79.81l-1.894-9.721h.169a7.187 7.187 0 1 0 0-14.374h-85.876a7.187 7.187 0 1 0 0 14.374h.169l-1.894 9.726a207.752 207.752 0 0 0 0 79.81l1.894 9.721h-.169a7.187 7.187 0 1 0 0 14.374h85.876a7.187 7.187 0 1 0 0-14.374zm-89.563-106.44a3.69 3.69 0 0 1 3.687-3.686h85.876a3.687 3.687 0 1 1 0 7.374h-85.876a3.691 3.691 0 0 1 -3.687-3.688zm5.4 96.049a204.24 204.24 0 0 1 0-78.47l2.025-10.391h78.4l2.024 10.391a204.24 204.24 0 0 1 0 78.47l-2.024 10.391h-78.4zm84.163 21.265h-85.876a3.687 3.687 0 1 1 0-7.374h85.876a3.687 3.687 0 1 1 0 7.374z"/><path d="m86.186 28.324h-44.373a7.759 7.759 0 0 0 -7.75 7.75v55.852a7.759 7.759 0 0 0 7.75 7.75h44.373a7.759 7.759 0 0 0 7.75-7.75v-55.852a7.759 7.759 0 0 0 -7.75-7.75zm4.25 63.6a4.254 4.254 0 0 1 -4.25 4.25h-44.373a4.255 4.255 0 0 1 -4.25-4.25v-55.85a4.255 4.255 0 0 1 4.25-4.25h44.373a4.254 4.254 0 0 1 4.25 4.25z"/><path d="m64 38.6c-8.871 0-15 19.048-17.857 30.4a16.39 16.39 0 0 0 15.893 20.4h3.928a16.394 16.394 0 0 0 15.894-20.4c-2.858-11.355-8.989-30.4-17.858-30.4zm1.964 47.3h-3.928a12.894 12.894 0 0 1 -12.5-16.049c4.185-16.599 9.997-27.751 14.464-27.751s10.278 11.152 14.464 27.753a12.895 12.895 0 0 1 -12.5 16.05z"/><path d="m61.575 48.685a1.752 1.752 0 0 0 -2.175 1.184l-2.606 8.831a1.75 1.75 0 1 0 3.357.99l2.607-8.834a1.75 1.75 0 0 0 -1.183-2.171z"/><path d="m56.863 63.292a1.754 1.754 0 0 0 -2.117 1.281l-1.086 4.417a1.748 1.748 0 0 0 1.281 2.117 1.728 1.728 0 0 0 .419.051 1.75 1.75 0 0 0 1.7-1.332l1.086-4.417a1.749 1.749 0 0 0 -1.283-2.117z"/><path d="m71.206 58.7-2.606-8.831a1.75 1.75 0 0 0 -3.358.99l2.607 8.834a1.75 1.75 0 1 0 3.357-.99z"/><path d="m73.254 64.573a1.75 1.75 0 0 0 -3.4.836l1.086 4.417a1.751 1.751 0 0 0 1.7 1.332 1.691 1.691 0 0 0 .419-.051 1.75 1.75 0 0 0 1.281-2.117z"/><path d="m64 60.489a1.75 1.75 0 0 0 -1.75 1.75v7.169a1.75 1.75 0 1 0 3.5 0v-7.169a1.75 1.75 0 0 0 -1.75-1.75z"/><path d="m64 74.537a1.75 1.75 0 0 0 -1.75 1.75v2.1a1.75 1.75 0 0 0 3.5 0v-2.1a1.75 1.75 0 0 0 -1.75-1.75z"/></g></svg>